<svg xmlns="http://www.w3.org/2000/svg" xmlns:xlink="http://www.w3.org/1999/xlink" xmlns:lucid="lucid" width="376.74" height="363.18"><g transform="translate(-451.2631809559443 -655.0159558474257)" lucid:page-tab-id="JYPU8inhH_ng"><path d="M0 500h1000v1000H0z" fill="#fff"/><path d="M528.33 915.2h-1.95v-24.4h1.95zM565.2 768.3h-32.8l-.67.06-.62.14-.57.25-.54.33-.5.4-.4.5-.33.52-.24.6-.15.6-.05.67v75.2h-1.95v-75.3l.07-.9.22-.9.36-.87.5-.8.6-.7.7-.62.8-.48.88-.36.92-.2.9-.1h32.9z" stroke="#979ea8" stroke-width=".05" fill="#979ea8"/><path d="M566.98 767.35L548.2 778.2l-.98-1.7 15.86-9.15-15.86-9.16.98-1.7z" stroke="#979ea8" stroke-width=".05" fill="#979ea8"/><path d="M528.33 916.2h-1.95v-1.03h1.95z" fill="#979ea8"/><path stroke="#979ea8" stroke-width=".05" fill="#979ea8"/><use xlink:href="#a" transform="matrix(1,0,0,1,504.8793981772984,847.6063667551863) translate(0.004999999999999005 14.4)"/><use xlink:href="#b" transform="matrix(1,0,0,1,504.8793981772984,847.6063667551863) translate(3.9800000000000004 36)"/><path d="M568.03 722.35a5 5 0 0 1 5-5h150a5 5 0 0 1 5 5v90a5 5 0 0 1-5 5h-150a5 5 0 0 1-5-5z" stroke="#000" stroke-width="2" fill="#fff"/><use xlink:href="#c" transform="matrix(1,0,0,1,580.0334083167652,729.3492391807594) translate(24.049999999999997 31.025)"/><use xlink:href="#d" transform="matrix(1,0,0,1,580.0334083167652,729.3492391807594) translate(44.05 52.625)"/><path d="M770 761.4l-.08 1.04-.25 1.07-.42 1.02-.57.93-.7.83-.85.72-.93.57-1 .42-1.08.24-1.05.08h-32.22v-1.95H763l.82-.06.76-.17.73-.3.7-.42.58-.5.52-.6.4-.67.3-.73.2-.76.06-.83V697.7H770zm-48.04-84.08h-67.9l-.8.07-.78.17-.73.3-.67.42-.6.5-.5.6-.42.67-.3.73-.2.76-.05.83v32.95h-1.94V682.3l.08-1.04.26-1.07.42-1.02.57-.93.7-.84.83-.7.94-.57 1-.42 1.07-.24 1.05-.1h67.96z" stroke="#979ea8" stroke-width=".05" fill="#979ea8"/><path d="M649 716.35h-1.94v-1.03H649z" fill="#979ea8"/><path stroke="#979ea8" stroke-width=".05" fill="#979ea8"/><path d="M748.84 758.2l-15.86 9.15 15.86 9.15-.97 1.7-18.8-10.85 18.8-10.85z" stroke="#979ea8" stroke-width=".05" fill="#979ea8"/><use xlink:href="#e" transform="matrix(1,0,0,1,721.9592842426914,655.0159558474257) translate(0.005000000000002558 14.222222222222223)"/><use xlink:href="#f" transform="matrix(1,0,0,1,721.9592842426914,655.0159558474257) translate(33.58524691358026 14.222222222222223)"/><use xlink:href="#g" transform="matrix(1,0,0,1,721.9592842426914,655.0159558474257) translate(13.80746913580247 35.55555555555556)"/><path d="M469.06 922.2a5 5 0 0 1 5-5h150a5 5 0 0 1 5 5v90a5 5 0 0 1-5 5h-150a5 5 0 0 1-5-5z" stroke="#000" stroke-width="2" fill="#dfe3e8"/><use xlink:href="#h" transform="matrix(1,0,0,1,481.06263064994937,929.1926852140538) translate(29.549999999999997 40.525)"/><path d="M667 922.2a5 5 0 0 1 5-5h150a5 5 0 0 1 5 5v90a5 5 0 0 1-5 5H672a5 5 0 0 1-5-5z" stroke="#000" stroke-width="2" fill="#dfe3e8"/><use xlink:href="#i" transform="matrix(1,0,0,1,679.004185983581,929.1926852140538) translate(34.525 40.525)"/><path d="M577.34 888.6h1.02l-27.32 27-1.37-1.38 27.67-27.35zM648 819.75l-28.24 27.92v-1.73h-1.02l27.9-27.58z" stroke="#979ea8" stroke-width=".05" fill="#979ea8"/><path d="M648 819.76l-1.38-1.38 2.8-.03z" fill="#979ea8"/><path stroke="#979ea8" stroke-width=".05" fill="#979ea8"/><path d="M556.7 895.76l-4.83 17.66 17.72-4.64.48 1.88-20.98 5.5 5.73-20.92z" stroke="#979ea8" stroke-width=".05" fill="#979ea8"/><use xlink:href="#j" transform="matrix(1,0,0,1,577.3381429401473,845.9376288640732) translate(0.004999999999999005 14.222222222222223)"/><use xlink:href="#k" transform="matrix(1,0,0,1,577.3381429401473,845.9376288640732) translate(1.4617901234567903 35.55555555555556)"/><path d="M746.4 914.22l-1.37 1.4-27.32-27.02h2.78zm-69.07-68.28h-2.78l-26.5-26.2 1.38-1.38z" stroke="#979ea8" stroke-width=".05" fill="#979ea8"/><path d="M649.45 818.38l-1.37 1.38-1.43-1.4h2.77z" fill="#979ea8"/><path stroke="#979ea8" stroke-width=".05" fill="#979ea8"/><path d="M746.97 916.16l-20.98-5.5.48-1.88 17.72 4.64-4.85-17.66 1.88-.52z" stroke="#979ea8" stroke-width=".05" fill="#979ea8"/><use xlink:href="#l" transform="matrix(1,0,0,1,640.3336119649879,845.9376288640732) translate(0.005000000000002558 14.222222222222223)"/><use xlink:href="#k" transform="matrix(1,0,0,1,640.3336119649879,845.9376288640732) translate(37.4370987654321 35.55555555555556)"/><path d="M483.7 914.38h-1.96V814.03h1.95zm82.33-182h-78.28l-.67.06-.6.14-.6.25-.53.33-.48.4-.4.5-.34.52-.24.6-.16.6-.05.67v12.8h-1.96v-12.88l.07-.9.23-.9.36-.87.48-.8.6-.72.72-.6.8-.5.87-.36.9-.22.9-.07h78.36z" stroke="#979ea8" stroke-width=".05" fill="#979ea8"/><path d="M567.03 732.4H566v-1.97h1.03z" fill="#979ea8"/><path stroke="#979ea8" stroke-width=".05" fill="#979ea8"/><path d="M493.56 897.36l-10.85 18.78-10.83-18.78 1.7-.98 9.14 15.86 9.17-15.86z" stroke="#979ea8" stroke-width=".05" fill="#979ea8"/><g><use xlink:href="#m" transform="matrix(1,0,0,1,451.2631809559443,749.2411542314927) translate(0.004999999999999005 14.4)"/><use xlink:href="#n" transform="matrix(1,0,0,1,451.2631809559443,749.2411542314927) translate(17.955 14.4)"/><use xlink:href="#o" transform="matrix(1,0,0,1,451.2631809559443,749.2411542314927) translate(20.980000000000004 36)"/><use xlink:href="#p" transform="matrix(1,0,0,1,451.2631809559443,749.2411542314927) translate(12.955000000000002 57.6)"/></g><defs><path fill="#979ea8" d="M117-194c89-4 53 116 60 194h-32v-121c0-31-8-49-39-48C34-167 62-67 57 0H25l-1-190h30c1 10-1 24 2 32 11-22 29-35 61-36" id="q"/><path fill="#979ea8" d="M141-36C126-15 110 5 73 4 37 3 15-17 15-53c-1-64 63-63 125-63 3-35-9-54-41-54-24 1-41 7-42 31l-33-3c5-37 33-52 76-52 45 0 72 20 72 64v82c-1 20 7 32 28 27v20c-31 9-61-2-59-35zM48-53c0 20 12 33 32 33 41-3 63-29 60-74-43 2-92-5-92 41" id="r"/><path fill="#979ea8" d="M210-169c-67 3-38 105-44 169h-31v-121c0-29-5-50-35-48C34-165 62-65 56 0H25l-1-190h30c1 10-1 24 2 32 10-44 99-50 107 0 11-21 27-35 58-36 85-2 47 119 55 194h-31v-121c0-29-5-49-35-48" id="s"/><path fill="#979ea8" d="M100-194c63 0 86 42 84 106H49c0 40 14 67 53 68 26 1 43-12 49-29l28 8c-11 28-37 45-77 45C44 4 14-33 15-96c1-61 26-98 85-98zm52 81c6-60-76-77-97-28-3 7-6 17-6 28h103" id="t"/><g id="a"><use transform="matrix(0.05,0,0,0.05,0,0)" xlink:href="#q"/><use transform="matrix(0.05,0,0,0.05,10,0)" xlink:href="#r"/><use transform="matrix(0.05,0,0,0.05,20,0)" xlink:href="#s"/><use transform="matrix(0.05,0,0,0.05,34.95,0)" xlink:href="#t"/></g><path fill="#979ea8" d="M26 75v-336h71v23H56V52h41v23H26" id="u"/><path fill="#979ea8" d="M27 0v-27h64v-190l-56 39v-29l58-41h29v221h61V0H27" id="v"/><path fill="#979ea8" d="M33 0v-38h34V0H33" id="w"/><path fill="#979ea8" d="M80-196l47-18 7 23-49 13 32 44-20 13-27-46-27 45-21-12 33-44-49-13 8-23 47 19-2-53h23" id="x"/><path fill="#979ea8" d="M3 75V52h41v-290H3v-23h71V75H3" id="y"/><g id="b"><use transform="matrix(0.05,0,0,0.05,0,0)" xlink:href="#u"/><use transform="matrix(0.05,0,0,0.05,5,0)" xlink:href="#v"/><use transform="matrix(0.05,0,0,0.05,15,0)" xlink:href="#w"/><use transform="matrix(0.05,0,0,0.05,20,0)" xlink:href="#w"/><use transform="matrix(0.05,0,0,0.05,25,0)" xlink:href="#x"/><use transform="matrix(0.05,0,0,0.05,32,0)" xlink:href="#y"/></g><path d="M212-179c-10-28-35-45-73-45-59 0-87 40-87 99 0 60 29 101 89 101 43 0 62-24 78-52l27 14C228-24 195 4 139 4 59 4 22-46 18-125c-6-104 99-153 187-111 19 9 31 26 39 46" id="z"/><path d="M100-194c62-1 85 37 85 99 1 63-27 99-86 99S16-35 15-95c0-66 28-99 85-99zM99-20c44 1 53-31 53-75 0-43-8-75-51-75s-53 32-53 75 10 74 51 75" id="A"/><path d="M210-169c-67 3-38 105-44 169h-31v-121c0-29-5-50-35-48C34-165 62-65 56 0H25l-1-190h30c1 10-1 24 2 32 10-44 99-50 107 0 11-21 27-35 58-36 85-2 47 119 55 194h-31v-121c0-29-5-49-35-48" id="B"/><path d="M115-194c55 1 70 41 70 98S169 2 115 4C84 4 66-9 55-30l1 105H24l-1-265h31l2 30c10-21 28-34 59-34zm-8 174c40 0 45-34 45-75s-6-73-45-74c-42 0-51 32-51 76 0 43 10 73 51 73" id="C"/><path d="M84 4C-5 8 30-112 23-190h32v120c0 31 7 50 39 49 72-2 45-101 50-169h31l1 190h-30c-1-10 1-25-2-33-11 22-28 36-60 37" id="D"/><path d="M117-194c89-4 53 116 60 194h-32v-121c0-31-8-49-39-48C34-167 62-67 57 0H25l-1-190h30c1 10-1 24 2 32 11-22 29-35 61-36" id="E"/><path d="M85-194c31 0 48 13 60 33l-1-100h32l1 261h-30c-2-10 0-23-3-31C134-8 116 4 85 4 32 4 16-35 15-94c0-66 23-100 70-100zm9 24c-40 0-46 34-46 75 0 40 6 74 45 74 42 0 51-32 51-76 0-42-9-74-50-73" id="F"/><g id="c"><use transform="matrix(0.05,0,0,0.05,0,0)" xlink:href="#z"/><use transform="matrix(0.05,0,0,0.05,12.950000000000001,0)" xlink:href="#A"/><use transform="matrix(0.05,0,0,0.05,22.950000000000003,0)" xlink:href="#B"/><use transform="matrix(0.05,0,0,0.05,37.900000000000006,0)" xlink:href="#C"/><use transform="matrix(0.05,0,0,0.05,47.900000000000006,0)" xlink:href="#A"/><use transform="matrix(0.05,0,0,0.05,57.900000000000006,0)" xlink:href="#D"/><use transform="matrix(0.05,0,0,0.05,67.9,0)" xlink:href="#E"/><use transform="matrix(0.05,0,0,0.05,77.9,0)" xlink:href="#F"/></g><path d="M190 0L58-211 59 0H30v-248h39L202-35l-2-213h31V0h-41" id="G"/><path d="M141-36C126-15 110 5 73 4 37 3 15-17 15-53c-1-64 63-63 125-63 3-35-9-54-41-54-24 1-41 7-42 31l-33-3c5-37 33-52 76-52 45 0 72 20 72 64v82c-1 20 7 32 28 27v20c-31 9-61-2-59-35zM48-53c0 20 12 33 32 33 41-3 63-29 60-74-43 2-92-5-92 41" id="H"/><path d="M100-194c63 0 86 42 84 106H49c0 40 14 67 53 68 26 1 43-12 49-29l28 8c-11 28-37 45-77 45C44 4 14-33 15-96c1-61 26-98 85-98zm52 81c6-60-76-77-97-28-3 7-6 17-6 28h103" id="I"/><g id="d"><use transform="matrix(0.05,0,0,0.05,0,0)" xlink:href="#G"/><use transform="matrix(0.05,0,0,0.05,12.950000000000001,0)" xlink:href="#H"/><use transform="matrix(0.05,0,0,0.05,22.950000000000003,0)" xlink:href="#B"/><use transform="matrix(0.05,0,0,0.05,37.900000000000006,0)" xlink:href="#I"/></g><path fill="#979ea8" d="M106-169C34-169 62-67 57 0H25v-261h32l-1 103c12-21 28-36 61-36 89 0 53 116 60 194h-32v-121c2-32-8-49-39-48" id="J"/><path fill="#979ea8" d="M135-143c-3-34-86-38-87 0 15 53 115 12 119 90S17 21 10-45l28-5c4 36 97 45 98 0-10-56-113-15-118-90-4-57 82-63 122-42 12 7 21 19 24 35" id="K"/><g id="e"><use transform="matrix(0.04938271604938272,0,0,0.04938271604938272,0,0)" xlink:href="#J"/><use transform="matrix(0.04938271604938272,0,0,0.04938271604938272,9.876543209876544,0)" xlink:href="#r"/><use transform="matrix(0.04938271604938272,0,0,0.04938271604938272,19.75308641975309,0)" xlink:href="#K"/></g><path fill="#979ea8" d="M115-194c55 1 70 41 70 98S169 2 115 4C84 4 66-9 55-30l1 105H24l-1-265h31l2 30c10-21 28-34 59-34zm-8 174c40 0 45-34 45-75s-6-73-45-74c-42 0-51 32-51 76 0 43 10 73 51 73" id="L"/><path fill="#979ea8" d="M114-163C36-179 61-72 57 0H25l-1-190h30c1 12-1 29 2 39 6-27 23-49 58-41v29" id="M"/><path fill="#979ea8" d="M59-47c-2 24 18 29 38 22v24C64 9 27 4 27-40v-127H5v-23h24l9-43h21v43h35v23H59v120" id="N"/><g id="f"><use transform="matrix(0.04938271604938272,0,0,0.04938271604938272,0,0)" xlink:href="#L"/><use transform="matrix(0.04938271604938272,0,0,0.04938271604938272,9.876543209876544,0)" xlink:href="#r"/><use transform="matrix(0.04938271604938272,0,0,0.04938271604938272,19.75308641975309,0)" xlink:href="#M"/><use transform="matrix(0.04938271604938272,0,0,0.04938271604938272,25.629629629629633,0)" xlink:href="#N"/></g><g id="g"><use transform="matrix(0.04938271604938272,0,0,0.04938271604938272,0,0)" xlink:href="#u"/><use transform="matrix(0.04938271604938272,0,0,0.04938271604938272,4.938271604938272,0)" xlink:href="#v"/><use transform="matrix(0.04938271604938272,0,0,0.04938271604938272,14.814814814814817,0)" xlink:href="#w"/><use transform="matrix(0.04938271604938272,0,0,0.04938271604938272,19.75308641975309,0)" xlink:href="#w"/><use transform="matrix(0.04938271604938272,0,0,0.04938271604938272,24.69135802469136,0)" xlink:href="#x"/><use transform="matrix(0.04938271604938272,0,0,0.04938271604938272,31.60493827160494,0)" xlink:href="#y"/></g><path d="M233-177c-1 41-23 64-60 70L243 0h-38l-65-103H63V0H30v-248c88 3 205-21 203 71zM63-129c60-2 137 13 137-47 0-61-80-42-137-45v92" id="O"/><path d="M135-143c-3-34-86-38-87 0 15 53 115 12 119 90S17 21 10-45l28-5c4 36 97 45 98 0-10-56-113-15-118-90-4-57 82-63 122-42 12 7 21 19 24 35" id="P"/><path d="M114-163C36-179 61-72 57 0H25l-1-190h30c1 12-1 29 2 39 6-27 23-49 58-41v29" id="Q"/><path d="M96-169c-40 0-48 33-48 73s9 75 48 75c24 0 41-14 43-38l32 2c-6 37-31 61-74 61-59 0-76-41-82-99-10-93 101-131 147-64 4 7 5 14 7 22l-32 3c-4-21-16-35-41-35" id="R"/><g id="h"><use transform="matrix(0.05,0,0,0.05,0,0)" xlink:href="#O"/><use transform="matrix(0.05,0,0,0.05,12.950000000000001,0)" xlink:href="#I"/><use transform="matrix(0.05,0,0,0.05,22.950000000000003,0)" xlink:href="#P"/><use transform="matrix(0.05,0,0,0.05,31.950000000000003,0)" xlink:href="#A"/><use transform="matrix(0.05,0,0,0.05,41.95,0)" xlink:href="#D"/><use transform="matrix(0.05,0,0,0.05,51.95,0)" xlink:href="#Q"/><use transform="matrix(0.05,0,0,0.05,57.900000000000006,0)" xlink:href="#R"/><use transform="matrix(0.05,0,0,0.05,66.9,0)" xlink:href="#I"/></g><path d="M59-47c-2 24 18 29 38 22v24C64 9 27 4 27-40v-127H5v-23h24l9-43h21v43h35v23H59v120" id="S"/><g id="i"><use transform="matrix(0.05,0,0,0.05,0,0)" xlink:href="#z"/><use transform="matrix(0.05,0,0,0.05,12.950000000000001,0)" xlink:href="#A"/><use transform="matrix(0.05,0,0,0.05,22.950000000000003,0)" xlink:href="#E"/><use transform="matrix(0.05,0,0,0.05,32.95,0)" xlink:href="#R"/><use transform="matrix(0.05,0,0,0.05,41.95,0)" xlink:href="#I"/><use transform="matrix(0.05,0,0,0.05,51.95,0)" xlink:href="#C"/><use transform="matrix(0.05,0,0,0.05,61.95,0)" xlink:href="#S"/></g><path fill="#979ea8" d="M108 0H70L1-190h34L89-25l56-165h34" id="T"/><path fill="#979ea8" d="M24 0v-261h32V0H24" id="U"/><path fill="#979ea8" d="M84 4C-5 8 30-112 23-190h32v120c0 31 7 50 39 49 72-2 45-101 50-169h31l1 190h-30c-1-10 1-25-2-33-11 22-28 36-60 37" id="V"/><g id="j"><use transform="matrix(0.04938271604938272,0,0,0.04938271604938272,0,0)" xlink:href="#T"/><use transform="matrix(0.04938271604938272,0,0,0.04938271604938272,8.88888888888889,0)" xlink:href="#r"/><use transform="matrix(0.04938271604938272,0,0,0.04938271604938272,18.765432098765434,0)" xlink:href="#U"/><use transform="matrix(0.04938271604938272,0,0,0.04938271604938272,22.666666666666668,0)" xlink:href="#V"/><use transform="matrix(0.04938271604938272,0,0,0.04938271604938272,32.543209876543216,0)" xlink:href="#t"/></g><g id="k"><use transform="matrix(0.04938271604938272,0,0,0.04938271604938272,0,0)" xlink:href="#u"/><use transform="matrix(0.04938271604938272,0,0,0.04938271604938272,4.938271604938272,0)" xlink:href="#v"/><use transform="matrix(0.04938271604938272,0,0,0.04938271604938272,14.814814814814817,0)" xlink:href="#w"/><use transform="matrix(0.04938271604938272,0,0,0.04938271604938272,19.75308641975309,0)" xlink:href="#w"/><use transform="matrix(0.04938271604938272,0,0,0.04938271604938272,24.69135802469136,0)" xlink:href="#v"/><use transform="matrix(0.04938271604938272,0,0,0.04938271604938272,34.567901234567906,0)" xlink:href="#y"/></g><path fill="#979ea8" d="M85-194c31 0 48 13 60 33l-1-100h32l1 261h-30c-2-10 0-23-3-31C134-8 116 4 85 4 32 4 16-35 15-94c0-66 23-100 70-100zm9 24c-40 0-46 34-46 75 0 40 6 74 45 74 42 0 51-32 51-76 0-42-9-74-50-73" id="W"/><path fill="#979ea8" d="M24-231v-30h32v30H24zM24 0v-190h32V0H24" id="X"/><path fill="#979ea8" d="M100-194c62-1 85 37 85 99 1 63-27 99-86 99S16-35 15-95c0-66 28-99 85-99zM99-20c44 1 53-31 53-75 0-43-8-75-51-75s-53 32-53 75 10 74 51 75" id="Y"/><path fill="#979ea8" d="M127-220V0H93v-220H8v-28h204v28h-85" id="Z"/><path fill="#979ea8" d="M179-190L93 31C79 59 56 82 12 73V49c39 6 53-20 64-50L1-190h34L92-34l54-156h33" id="aa"/><g id="l"><use transform="matrix(0.04938271604938272,0,0,0.04938271604938272,0,0)" xlink:href="#r"/><use transform="matrix(0.04938271604938272,0,0,0.04938271604938272,9.876543209876544,0)" xlink:href="#W"/><use transform="matrix(0.04938271604938272,0,0,0.04938271604938272,19.75308641975309,0)" xlink:href="#W"/><use transform="matrix(0.04938271604938272,0,0,0.04938271604938272,29.629629629629633,0)" xlink:href="#X"/><use transform="matrix(0.04938271604938272,0,0,0.04938271604938272,33.53086419753087,0)" xlink:href="#N"/><use transform="matrix(0.04938271604938272,0,0,0.04938271604938272,38.46913580246914,0)" xlink:href="#X"/><use transform="matrix(0.04938271604938272,0,0,0.04938271604938272,42.370370370370374,0)" xlink:href="#Y"/><use transform="matrix(0.04938271604938272,0,0,0.04938271604938272,52.24691358024692,0)" xlink:href="#q"/><use transform="matrix(0.04938271604938272,0,0,0.04938271604938272,62.12345679012346,0)" xlink:href="#r"/><use transform="matrix(0.04938271604938272,0,0,0.04938271604938272,72,0)" xlink:href="#U"/><use transform="matrix(0.04938271604938272,0,0,0.04938271604938272,75.90123456790124,0)" xlink:href="#Z"/><use transform="matrix(0.04938271604938272,0,0,0.04938271604938272,85.72839506172839,0)" xlink:href="#aa"/><use transform="matrix(0.04938271604938272,0,0,0.04938271604938272,94.61728395061728,0)" xlink:href="#L"/><use transform="matrix(0.04938271604938272,0,0,0.04938271604938272,104.49382716049381,0)" xlink:href="#t"/></g><g id="m"><use transform="matrix(0.05,0,0,0.05,0,0)" xlink:href="#X"/><use transform="matrix(0.05,0,0,0.05,3.95,0)" xlink:href="#K"/></g><g id="n"><use transform="matrix(0.05,0,0,0.05,0,0)" xlink:href="#q"/><use transform="matrix(0.05,0,0,0.05,10,0)" xlink:href="#r"/><use transform="matrix(0.05,0,0,0.05,20,0)" xlink:href="#s"/><use transform="matrix(0.05,0,0,0.05,34.95,0)" xlink:href="#t"/></g><path fill="#979ea8" d="M101-234c-31-9-42 10-38 44h38v23H63V0H32v-167H5v-23h27c-7-52 17-82 69-68v24" id="ab"/><g id="o"><use transform="matrix(0.05,0,0,0.05,0,0)" xlink:href="#ab"/><use transform="matrix(0.05,0,0,0.05,5,0)" xlink:href="#Y"/><use transform="matrix(0.05,0,0,0.05,15,0)" xlink:href="#M"/></g><g id="p"><use transform="matrix(0.05,0,0,0.05,0,0)" xlink:href="#u"/><use transform="matrix(0.05,0,0,0.05,5,0)" xlink:href="#x"/><use transform="matrix(0.05,0,0,0.05,12,0)" xlink:href="#w"/><use transform="matrix(0.05,0,0,0.05,17,0)" xlink:href="#w"/><use transform="matrix(0.05,0,0,0.05,22,0)" xlink:href="#v"/><use transform="matrix(0.05,0,0,0.05,32,0)" xlink:href="#y"/></g></defs></g></svg>