<svg xmlns="http://www.w3.org/2000/svg" xmlns:xlink="http://www.w3.org/1999/xlink" xmlns:lucid="lucid" width="677.71" height="708.22"><g transform="translate(-389.6666666666665 -304.9281803626384)" lucid:page-tab-id="EeQUeBVkS9KY"><path d="M0 0h3662v2566H0z" fill="#fff"/><path d="M649.98 414.84a5 5 0 0 1 5-5h406.4a5 5 0 0 1 5 5v592.3a5 5 0 0 1-5 5h-406.4a5 5 0 0 1-5-5z" fill-opacity="0"/><path d="M664.94 409.84h3.98m7.97 0h3.98m7.97 0h3.98m7.97 0h3.98m7.97 0h4m7.95 0h4m7.96 0h3.98m7.97 0h4m7.96 0h4m7.96 0h3.98m7.97 0h3.98m7.97 0h4m7.95 0h4m7.96 0h3.98m7.98 0h3.98m7.97 0h4m7.96 0h3.97m7.97 0h3.98m7.97 0h3.98m7.96 0h4m7.96 0h3.98m7.97 0h3.98m7.97 0h4m7.96 0h3.98m7.97 0h4m7.96 0h4m7.96 0h3.98m7.97 0h3.98m7.97 0h4m7.95 0h4m7.96 0h3.98m7.98 0h3.98m7.97 0h4m7.95 0h2l.78.06.76.2.73.3.67.4.6.5.5.6.4.67.3.73.2.76.06.78v2.02m0 8.06v4.02m0 8.06v4.03m0 8.06v4.02m0 8.06v4.03m0 8.07v4.03m0 8.06v4.02m0 8.06v4.03m0 8.06v4.03m0 8.06v4.03m0 8.06v4.03m0 8.06v4.02m0 8.06v4.03m0 8.07V574m0 8.06v4.03m0 8.04v4.03m0 8.06v4.03m0 8.06v4.03m0 8.06v4.04m0 8.06v4.02m0 8.06v4.03m0 8.07v4.03m0 8.06v4.03m0 8.05v4.03m0 8.05v4.03m0 8.06v4.03m0 8.06v4.04m0 8.06v4.03m0 8.06v4.02m0 8.05v4.03m0 8.06v4.03m0 8.05v4.03m0 8.06v4.03m0 8.06v4.02m0 8.06v4.04m0 8.06v4.03m0 8.06V852m0 8.06v4.02m0 8.06v4.03m0 8.05v4.03m0 8.06v4.03m0 8.06v4.03m0 8.05v4.04m0 8.06v4.03m0 8.06v4.02m0 8.06v4.03m0 8.07v4.02m0 8.05v4.03m0 8.06v4.03m0 8.06v2l-.06.8-.2.76-.3.7-.4.68-.5.6-.6.5-.67.42-.73.3-.76.18-.78.06h-2m-7.96 0h-4m-7.96 0h-3.98m-7.97 0h-3.97m-7.97 0h-4m-7.95 0h-3.98m-7.97 0h-3.98m-7.97 0h-4m-7.95 0h-4m-7.96 0h-4m-7.96 0h-3.98m-7.97 0h-4m-7.97 0h-3.98m-7.97 0H904m-7.97 0h-4m-7.95 0h-4m-7.96 0h-3.98m-7.97 0h-3.98m-7.98 0h-4m-7.96 0h-3.98m-7.97 0h-3.97m-7.97 0h-4m-7.95 0h-3.98m-7.97 0h-3.98m-7.97 0h-3.98m-7.97 0h-4m-7.96 0h-4m-7.96 0h-3.98m-7.97 0h-4m-7.97 0h-3.98m-7.97 0h-3.98m-7.97 0h-4m-7.95 0h-4m-7.96 0h-3.98m-7.97 0h-2l-.77-.06-.77-.18-.72-.3-.66-.4-.6-.52-.5-.6-.42-.67-.3-.7-.18-.77-.06-.8v-2m0-8.06v-4.03m0-8.06v-4.03m0-8.06v-4.03m0-8.06v-4.02m0-8.06v-4.03m0-8.07v-4.03m0-8.06v-4.02m0-8.06v-4.03m0-8.06v-4.03m0-8.06v-4.03m0-8.06v-4.04m0-8.05v-4.02m0-8.06V848m0-8.07v-4.03m0-8.06v-4.03m0-8.05v-4.02m0-8.06v-4.03m0-8.06v-4.03m0-8.06v-4.04m0-8.06v-4.03m0-8.05v-4.03m0-8.07v-4.03m0-8.06v-4.03m0-8.05v-4.03m0-8.06v-4.03m0-8.05v-4.03m0-8.06v-4.04m0-8.06v-4.03m0-8.06v-4.02m0-8.06v-4.02m0-8.06v-4.03m0-8.05v-4.03m0-8.06v-4.03m0-8.06v-4.02m0-8.06v-4.04m0-8.06v-4.03m0-8.06v-4.02m0-8.06v-4.03m0-8.06v-4.03m0-8.05v-4.03m0-8.06v-4.03m0-8.06v-4.03m0-8.06v-4.02m0-8.06v-4.03m0-8.06v-4.02m0-8.06v-4.03m0-8.07V437m0-8.06v-4.02m0-8.06v-2.02l.06-.78.18-.76.3-.73.4-.67.52-.6.6-.5.67-.4.73-.3.77-.2.78-.06h2" stroke="#000" stroke-width="2" fill="none"/><path d="M390.67 561a5 5 0 0 1 5-5h150a5 5 0 0 1 5 5v110a5 5 0 0 1-5 5h-150a5 5 0 0 1-5-5z" stroke="#000" stroke-width="2" fill="#e3fae3"/><use xlink:href="#a" transform="matrix(1,0,0,1,402.66666666666663,568) translate(25.969135802469125 52.888888888888886)"/><path d="M390.67 365.6a5 5 0 0 1 5-5h150a5 5 0 0 1 5 5v110a5 5 0 0 1-5 5h-150a5 5 0 0 1-5-5z" stroke="#000" stroke-width="2" fill="#edf5ff"/><use xlink:href="#b" transform="matrix(1,0,0,1,402.6666666666665,372.5947970293053) translate(8.314814814814795 38.22222222222222)"/><use xlink:href="#c" transform="matrix(1,0,0,1,402.6666666666665,372.5947970293053) translate(35.4753086419753 67.55555555555556)"/><path d="M471.64 553.18h-1.95v-20.22h1.94zm0-49.55h-1.95V482.6h1.94z" stroke="#1071e5" stroke-width=".05" fill="#1071e5"/><path d="M481.5 536.17l-10.83 18.78-10.85-18.78 1.7-.98 9.15 15.85 9.15-15.86z" stroke="#1071e5" stroke-width=".05" fill="#1071e5"/><path d="M471.64 482.62h-1.95v-1.02h1.94z" fill="#1071e5"/><path stroke="#1071e5" stroke-width=".05" fill="#1071e5"/><use xlink:href="#d" transform="matrix(1,0,0,1,410.3364197530864,503.63073184798594) translate(0.005000000000002558 19.555555555555557)"/><use xlink:href="#e" transform="matrix(1,0,0,1,410.3364197530864,503.63073184798594) translate(24.381543209876547 19.555555555555557)"/><use xlink:href="#f" transform="matrix(1,0,0,1,410.3364197530864,503.63073184798594) translate(92.2148765432099 19.555555555555557)"/><path d="M390.67 756.4a5 5 0 0 1 5-5h150a5 5 0 0 1 5 5v110a5 5 0 0 1-5 5h-150a5 5 0 0 1-5-5z" stroke="#000" stroke-width="2" fill="#e3fae3"/><use xlink:href="#g" transform="matrix(1,0,0,1,402.6666666666666,763.4052029706947) translate(14.42592592592591 52.888888888888886)"/><path d="M471.64 748.6h-1.95v-20.23h1.94zm0-49.56h-1.95V678h1.94z" stroke="#54c45e" stroke-width=".05" fill="#54c45e"/><path d="M471.64 678.03h-1.95V677h1.94z" fill="#54c45e"/><path stroke="#54c45e" stroke-width=".05" fill="#54c45e"/><path d="M481.5 731.57l-10.83 18.78-10.85-18.78 1.7-.97 9.15 15.86 9.15-15.86z" stroke="#54c45e" stroke-width=".05" fill="#54c45e"/><use xlink:href="#h" transform="matrix(1,0,0,1,396.7222222222222,699.0359348186807) translate(0.0049999999999954525 19.555555555555557)"/><use xlink:href="#i" transform="matrix(1,0,0,1,396.7222222222222,699.0359348186807) translate(46.177839506172845 19.555555555555557)"/><path d="M390.67 951.8a5 5 0 0 1 5-5h150a5 5 0 0 1 5 5v55.34a5 5 0 0 1-5 5h-150a5 5 0 0 1-5-5z" stroke="#000" stroke-width="2" fill="#fff"/><use xlink:href="#j" transform="matrix(1,0,0,1,402.66666666666663,958.8104059413895) translate(35.33024691358025 25.88888888888889)"/><path d="M471.64 944h-1.95v-20.23h1.94zm0-49.56h-1.95V873.4h1.94z" stroke="#54c45e" stroke-width=".05" fill="#54c45e"/><path d="M471.64 873.43h-1.95v-1.02h1.94z" fill="#54c45e"/><path stroke="#54c45e" stroke-width=".05" fill="#54c45e"/><path d="M481.5 926.98l-10.83 18.78-10.85-18.78 1.7-.98 9.15 15.86 9.15-15.86z" stroke="#54c45e" stroke-width=".05" fill="#54c45e"/><use xlink:href="#k" transform="matrix(1,0,0,1,427.27777777777766,894.4411377893755) translate(0.005000000000002558 19.555555555555557)"/><use xlink:href="#l" transform="matrix(1,0,0,1,427.27777777777766,894.4411377893755) translate(32.5975925925926 19.555555555555557)"/><path d="M592.64 415.63l-.07.9-.22.9-.36.88-.5.8-.6.72-.72.6-.8.5-.87.36-.9.22-.9.07h-34.03v-1.95h33.96l.67-.05.6-.15.6-.24.53-.33.48-.4.42-.5.33-.53.24-.58.14-.62.05-.66v-81.3h1.94zm-55.07-95.06H475.7l-.66.05-.62.15-.58.24-.54.34-.48.4-.4.5-.34.53-.24.58-.15.62-.06.66v33.15h-1.95v-33.22l.06-.9.22-.9.36-.88.5-.8.6-.7.7-.62.8-.5.88-.35.9-.2.9-.08h61.95z" stroke="#e81313" stroke-width=".05" fill="#e81313"/><path d="M552.7 421.57h-1.03v-1.95h1.02z" fill="#e81313"/><path stroke="#e81313" stroke-width=".05" fill="#e81313"/><path d="M481.5 340.76l-10.83 18.8-10.85-18.8 1.7-.97 9.15 15.84 9.15-15.85z" stroke="#e81313" stroke-width=".05" fill="#e81313"/><use xlink:href="#m" transform="matrix(1,0,0,1,537.564764814815,304.9281803626384) translate(0.005000000000002558 19.555555555555557)"/><use xlink:href="#n" transform="matrix(1,0,0,1,537.564764814815,304.9281803626384) translate(46.17783950617285 19.555555555555557)"/><path d="M679.58 451.7a5 5 0 0 1 5-5h150a5 5 0 0 1 5 5v110a5 5 0 0 1-5 5h-150a5 5 0 0 1-5-5z" stroke="#000" stroke-width="2" fill="#e3fae3"/><use xlink:href="#o" transform="matrix(1,0,0,1,691.5787309816945,458.70707539825844) translate(37.51234567901234 52.888888888888886)"/><path d="M722.02 616.56H685.4v-1.95H722zm115.73 0h-35.8v-1.95h35.8z" stroke="#54c45e" stroke-width=".05" fill="#54c45e"/><path d="M685.42 616.56h-1.03v-1.95h1.02zM839.5 615.6l-18.77 10.83-.97-1.7 15.85-9.14-15.84-9.17.97-1.7z" stroke="#54c45e" stroke-width=".05" fill="#54c45e"/><use xlink:href="#p" transform="matrix(1,0,0,1,722.0172651670225,600.9187889485415) translate(0.005000000000002558 19.555555555555557)"/><path d="M679.58 795.3a5 5 0 0 1 5-5h150a5 5 0 0 1 5 5v110a5 5 0 0 1-5 5h-150a5 5 0 0 1-5-5z" stroke="#1071e5" stroke-width="2" fill="#edf5ff"/><use xlink:href="#q" transform="matrix(1,0,0,1,691.5787309816945,802.3081317903062) translate(37.51234567901234 52.888888888888886)"/><path d="M722.02 960.16H685.4v-1.95H722zm115.73 0h-35.8v-1.95h35.8z" stroke="#1071e5" stroke-width=".05" fill="#1071e5"/><path d="M685.42 960.16h-1.03v-1.95h1.02zM839.5 959.2l-18.77 10.83-.97-1.7 15.85-9.14-15.84-9.17.97-1.7z" stroke="#1071e5" stroke-width=".05" fill="#1071e5"/><use xlink:href="#r" transform="matrix(1,0,0,1,722.0172651670225,944.5198453405892) translate(0.005000000000002558 19.555555555555557)"/><path d="M722.02 705.4H685.4v-1.95H722zm115.73 0h-35.8v-1.95h35.8z" stroke="#e81313" stroke-width=".05" fill="#e81313"/><path d="M685.42 705.4h-1.03v-1.95h1.02zM839.5 704.42l-18.77 10.85-.97-1.7 15.85-9.15-15.84-9.15.97-1.7z" stroke="#e81313" stroke-width=".05" fill="#e81313"/><use xlink:href="#s" transform="matrix(1,0,0,1,722.0172651670223,689.7565386363942) translate(0.005000000000002558 19.555555555555557)"/><path d="M883.46 441.2a5 5 0 0 1 5-5h70a5 5 0 0 1 5 5v187.7a5 5 0 0 1-5 5h-70a5 5 0 0 1-5-5z" fill="none"/><path d="M883.46 633.9c5.52 0 10-4.47 10-10v-78.84c0-5.53 4.48-10 10-10-5.52 0-10-4.48-10-10V446.2c0-5.52-4.48-10-10-10" stroke="#000" stroke-width="2" fill="none"/><use xlink:href="#t" transform="matrix(1,0,0,1,918.460598061334,441.20574675367965) translate(0 86.80000000000001)"/><use xlink:href="#u" transform="matrix(1,0,0,1,918.460598061334,441.20574675367965) translate(0 108.4)"/><path d="M883.46 788a5 5 0 0 1 5-5h165.72a5 5 0 0 1 5 5v187.7a5 5 0 0 1-5 5H888.46a5 5 0 0 1-5-5z" fill="none"/><path d="M883.46 980.7c5.52 0 10-4.48 10-10v-78.85c0-5.52 4.48-10 10-10-5.52 0-10-4.48-10-10V793c0-5.52-4.48-10-10-10" stroke="#000" stroke-width="2" fill="none"/><g><use xlink:href="#v" transform="matrix(1,0,0,1,918.4605980613335,787.9984195799711) translate(0 86.80000000000001)"/><use xlink:href="#w" transform="matrix(1,0,0,1,918.4605980613335,787.9984195799711) translate(0 108.4)"/><use xlink:href="#u" transform="matrix(1,0,0,1,918.4605980613335,787.9984195799711) translate(52.900000000000006 108.4)"/></g><path d="M883.46 668.93a5 5 0 0 1 5-5h70a5 5 0 0 1 5 5v79.05a5 5 0 0 1-5 5h-70a5 5 0 0 1-5-5z" fill="none"/><path d="M883.46 752.98c5.52 0 10-4.48 10-10v-24.53c0-5.52 4.48-10 10-10-5.52 0-10-4.48-10-10v-24.52c0-5.53-4.48-10-10-10" stroke="#000" stroke-width="2" fill="none"/><g><use xlink:href="#x" transform="matrix(1,0,0,1,918.4605980613338,668.9262640397417) translate(0 32.8)"/><use xlink:href="#u" transform="matrix(1,0,0,1,918.4605980613338,668.9262640397417) translate(0 54.4)"/></g><defs><path fill="#008a0e" d="M63-220v92h138v28H63V0H30v-248h175v28H63" id="y"/><path fill="#008a0e" d="M100-194c63 0 86 42 84 106H49c0 40 14 67 53 68 26 1 43-12 49-29l28 8c-11 28-37 45-77 45C44 4 14-33 15-96c1-61 26-98 85-98zm52 81c6-60-76-77-97-28-3 7-6 17-6 28h103" id="z"/><path fill="#008a0e" d="M141-36C126-15 110 5 73 4 37 3 15-17 15-53c-1-64 63-63 125-63 3-35-9-54-41-54-24 1-41 7-42 31l-33-3c5-37 33-52 76-52 45 0 72 20 72 64v82c-1 20 7 32 28 27v20c-31 9-61-2-59-35zM48-53c0 20 12 33 32 33 41-3 63-29 60-74-43 2-92-5-92 41" id="A"/><path fill="#008a0e" d="M59-47c-2 24 18 29 38 22v24C64 9 27 4 27-40v-127H5v-23h24l9-43h21v43h35v23H59v120" id="B"/><path fill="#008a0e" d="M84 4C-5 8 30-112 23-190h32v120c0 31 7 50 39 49 72-2 45-101 50-169h31l1 190h-30c-1-10 1-25-2-33-11 22-28 36-60 37" id="C"/><path fill="#008a0e" d="M114-163C36-179 61-72 57 0H25l-1-190h30c1 12-1 29 2 39 6-27 23-49 58-41v29" id="D"/><g id="a"><use transform="matrix(0.06790123456790124,0,0,0.06790123456790124,0,0)" xlink:href="#y"/><use transform="matrix(0.06790123456790124,0,0,0.06790123456790124,14.870370370370372,0)" xlink:href="#z"/><use transform="matrix(0.06790123456790124,0,0,0.06790123456790124,28.45061728395062,0)" xlink:href="#A"/><use transform="matrix(0.06790123456790124,0,0,0.06790123456790124,42.03086419753087,0)" xlink:href="#B"/><use transform="matrix(0.06790123456790124,0,0,0.06790123456790124,48.820987654320994,0)" xlink:href="#C"/><use transform="matrix(0.06790123456790124,0,0,0.06790123456790124,62.40123456790124,0)" xlink:href="#D"/><use transform="matrix(0.06790123456790124,0,0,0.06790123456790124,70.4814814814815,0)" xlink:href="#z"/></g><path fill="#1071e5" d="M212-179c-10-28-35-45-73-45-59 0-87 40-87 99 0 60 29 101 89 101 43 0 62-24 78-52l27 14C228-24 195 4 139 4 59 4 22-46 18-125c-6-104 99-153 187-111 19 9 31 26 39 46" id="E"/><path fill="#1071e5" d="M100-194c62-1 85 37 85 99 1 63-27 99-86 99S16-35 15-95c0-66 28-99 85-99zM99-20c44 1 53-31 53-75 0-43-8-75-51-75s-53 32-53 75 10 74 51 75" id="F"/><path fill="#1071e5" d="M210-169c-67 3-38 105-44 169h-31v-121c0-29-5-50-35-48C34-165 62-65 56 0H25l-1-190h30c1 10-1 24 2 32 10-44 99-50 107 0 11-21 27-35 58-36 85-2 47 119 55 194h-31v-121c0-29-5-49-35-48" id="G"/><path fill="#1071e5" d="M115-194c55 1 70 41 70 98S169 2 115 4C84 4 66-9 55-30l1 105H24l-1-265h31l2 30c10-21 28-34 59-34zm-8 174c40 0 45-34 45-75s-6-73-45-74c-42 0-51 32-51 76 0 43 10 73 51 73" id="H"/><path fill="#1071e5" d="M84 4C-5 8 30-112 23-190h32v120c0 31 7 50 39 49 72-2 45-101 50-169h31l1 190h-30c-1-10 1-25-2-33-11 22-28 36-60 37" id="I"/><path fill="#1071e5" d="M117-194c89-4 53 116 60 194h-32v-121c0-31-8-49-39-48C34-167 62-67 57 0H25l-1-190h30c1 10-1 24 2 32 11-22 29-35 61-36" id="J"/><path fill="#1071e5" d="M85-194c31 0 48 13 60 33l-1-100h32l1 261h-30c-2-10 0-23-3-31C134-8 116 4 85 4 32 4 16-35 15-94c0-66 23-100 70-100zm9 24c-40 0-46 34-46 75 0 40 6 74 45 74 42 0 51-32 51-76 0-42-9-74-50-73" id="K"/><g id="b"><use transform="matrix(0.06790123456790124,0,0,0.06790123456790124,0,0)" xlink:href="#E"/><use transform="matrix(0.06790123456790124,0,0,0.06790123456790124,17.58641975308642,0)" xlink:href="#F"/><use transform="matrix(0.06790123456790124,0,0,0.06790123456790124,31.16666666666667,0)" xlink:href="#G"/><use transform="matrix(0.06790123456790124,0,0,0.06790123456790124,51.46913580246915,0)" xlink:href="#H"/><use transform="matrix(0.06790123456790124,0,0,0.06790123456790124,65.0493827160494,0)" xlink:href="#F"/><use transform="matrix(0.06790123456790124,0,0,0.06790123456790124,78.62962962962965,0)" xlink:href="#I"/><use transform="matrix(0.06790123456790124,0,0,0.06790123456790124,92.2098765432099,0)" xlink:href="#J"/><use transform="matrix(0.06790123456790124,0,0,0.06790123456790124,105.79012345679016,0)" xlink:href="#K"/></g><path fill="#1071e5" d="M190 0L58-211 59 0H30v-248h39L202-35l-2-213h31V0h-41" id="L"/><path fill="#1071e5" d="M141-36C126-15 110 5 73 4 37 3 15-17 15-53c-1-64 63-63 125-63 3-35-9-54-41-54-24 1-41 7-42 31l-33-3c5-37 33-52 76-52 45 0 72 20 72 64v82c-1 20 7 32 28 27v20c-31 9-61-2-59-35zM48-53c0 20 12 33 32 33 41-3 63-29 60-74-43 2-92-5-92 41" id="M"/><path fill="#1071e5" d="M100-194c63 0 86 42 84 106H49c0 40 14 67 53 68 26 1 43-12 49-29l28 8c-11 28-37 45-77 45C44 4 14-33 15-96c1-61 26-98 85-98zm52 81c6-60-76-77-97-28-3 7-6 17-6 28h103" id="N"/><g id="c"><use transform="matrix(0.06790123456790124,0,0,0.06790123456790124,0,0)" xlink:href="#L"/><use transform="matrix(0.06790123456790124,0,0,0.06790123456790124,17.58641975308642,0)" xlink:href="#M"/><use transform="matrix(0.06790123456790124,0,0,0.06790123456790124,31.16666666666667,0)" xlink:href="#G"/><use transform="matrix(0.06790123456790124,0,0,0.06790123456790124,51.46913580246915,0)" xlink:href="#N"/></g><path fill="#1071e5" d="M24-231v-30h32v30H24zM24 0v-190h32V0H24" id="O"/><path fill="#1071e5" d="M135-143c-3-34-86-38-87 0 15 53 115 12 119 90S17 21 10-45l28-5c4 36 97 45 98 0-10-56-113-15-118-90-4-57 82-63 122-42 12 7 21 19 24 35" id="P"/><g id="d"><use transform="matrix(0.06790123456790124,0,0,0.06790123456790124,0,0)" xlink:href="#O"/><use transform="matrix(0.06790123456790124,0,0,0.06790123456790124,5.364197530864199,0)" xlink:href="#P"/></g><g id="e"><use transform="matrix(0.06790123456790124,0,0,0.06790123456790124,0,0)" xlink:href="#J"/><use transform="matrix(0.06790123456790124,0,0,0.06790123456790124,13.580246913580249,0)" xlink:href="#M"/><use transform="matrix(0.06790123456790124,0,0,0.06790123456790124,27.160493827160497,0)" xlink:href="#G"/><use transform="matrix(0.06790123456790124,0,0,0.06790123456790124,47.46296296296297,0)" xlink:href="#N"/></g><path fill="#1071e5" d="M101-234c-31-9-42 10-38 44h38v23H63V0H32v-167H5v-23h27c-7-52 17-82 69-68v24" id="Q"/><path fill="#1071e5" d="M114-163C36-179 61-72 57 0H25l-1-190h30c1 12-1 29 2 39 6-27 23-49 58-41v29" id="R"/><g id="f"><use transform="matrix(0.06790123456790124,0,0,0.06790123456790124,0,0)" xlink:href="#Q"/><use transform="matrix(0.06790123456790124,0,0,0.06790123456790124,6.790123456790124,0)" xlink:href="#F"/><use transform="matrix(0.06790123456790124,0,0,0.06790123456790124,20.370370370370374,0)" xlink:href="#R"/></g><path fill="#008a0e" d="M143 4C61 4 22-44 18-125c-5-107 100-154 193-111 17 8 29 25 37 43l-32 9c-13-25-37-40-76-40-61 0-88 39-88 99 0 61 29 100 91 101 35 0 62-11 79-27v-45h-74v-28h105v86C228-13 192 4 143 4" id="S"/><path fill="#008a0e" d="M100-194c62-1 85 37 85 99 1 63-27 99-86 99S16-35 15-95c0-66 28-99 85-99zM99-20c44 1 53-31 53-75 0-43-8-75-51-75s-53 32-53 75 10 74 51 75" id="T"/><path fill="#008a0e" d="M210-169c-67 3-38 105-44 169h-31v-121c0-29-5-50-35-48C34-165 62-65 56 0H25l-1-190h30c1 10-1 24 2 32 10-44 99-50 107 0 11-21 27-35 58-36 85-2 47 119 55 194h-31v-121c0-29-5-49-35-48" id="U"/><path fill="#008a0e" d="M179-190L93 31C79 59 56 82 12 73V49c39 6 53-20 64-50L1-190h34L92-34l54-156h33" id="V"/><g id="g"><use transform="matrix(0.06790123456790124,0,0,0.06790123456790124,0,0)" xlink:href="#S"/><use transform="matrix(0.06790123456790124,0,0,0.06790123456790124,19.01234567901235,0)" xlink:href="#z"/><use transform="matrix(0.06790123456790124,0,0,0.06790123456790124,32.592592592592595,0)" xlink:href="#T"/><use transform="matrix(0.06790123456790124,0,0,0.06790123456790124,46.17283950617284,0)" xlink:href="#U"/><use transform="matrix(0.06790123456790124,0,0,0.06790123456790124,66.47530864197532,0)" xlink:href="#z"/><use transform="matrix(0.06790123456790124,0,0,0.06790123456790124,80.05555555555557,0)" xlink:href="#B"/><use transform="matrix(0.06790123456790124,0,0,0.06790123456790124,86.8456790123457,0)" xlink:href="#D"/><use transform="matrix(0.06790123456790124,0,0,0.06790123456790124,94.92592592592595,0)" xlink:href="#V"/></g><path fill="#008a0e" d="M106-169C34-169 62-67 57 0H25v-261h32l-1 103c12-21 28-36 61-36 89 0 53 116 60 194h-32v-121c2-32-8-49-39-48" id="W"/><path fill="#008a0e" d="M135-143c-3-34-86-38-87 0 15 53 115 12 119 90S17 21 10-45l28-5c4 36 97 45 98 0-10-56-113-15-118-90-4-57 82-63 122-42 12 7 21 19 24 35" id="X"/><g id="h"><use transform="matrix(0.06790123456790124,0,0,0.06790123456790124,0,0)" xlink:href="#W"/><use transform="matrix(0.06790123456790124,0,0,0.06790123456790124,13.580246913580249,0)" xlink:href="#A"/><use transform="matrix(0.06790123456790124,0,0,0.06790123456790124,27.160493827160497,0)" xlink:href="#X"/></g><path fill="#008a0e" d="M177-190C167-65 218 103 67 71c-23-6-38-20-44-43l32-5c15 47 100 32 89-28v-30C133-14 115 1 83 1 29 1 15-40 15-95c0-56 16-97 71-98 29-1 48 16 59 35 1-10 0-23 2-32h30zM94-22c36 0 50-32 50-73 0-42-14-75-50-75-39 0-46 34-46 75s6 73 46 73" id="Y"/><g id="i"><use transform="matrix(0.06790123456790124,0,0,0.06790123456790124,0,0)" xlink:href="#Y"/><use transform="matrix(0.06790123456790124,0,0,0.06790123456790124,13.580246913580249,0)" xlink:href="#z"/><use transform="matrix(0.06790123456790124,0,0,0.06790123456790124,27.160493827160497,0)" xlink:href="#T"/><use transform="matrix(0.06790123456790124,0,0,0.06790123456790124,40.74074074074075,0)" xlink:href="#U"/><use transform="matrix(0.06790123456790124,0,0,0.06790123456790124,61.043209876543216,0)" xlink:href="#z"/><use transform="matrix(0.06790123456790124,0,0,0.06790123456790124,74.62345679012347,0)" xlink:href="#B"/><use transform="matrix(0.06790123456790124,0,0,0.06790123456790124,81.4135802469136,0)" xlink:href="#D"/><use transform="matrix(0.06790123456790124,0,0,0.06790123456790124,89.49382716049385,0)" xlink:href="#V"/></g><path d="M30 0v-248h33v221h125V0H30" id="Z"/><path d="M24-231v-30h32v30H24zM24 0v-190h32V0H24" id="aa"/><path d="M59-47c-2 24 18 29 38 22v24C64 9 27 4 27-40v-127H5v-23h24l9-43h21v43h35v23H59v120" id="ab"/><path d="M100-194c63 0 86 42 84 106H49c0 40 14 67 53 68 26 1 43-12 49-29l28 8c-11 28-37 45-77 45C44 4 14-33 15-96c1-61 26-98 85-98zm52 81c6-60-76-77-97-28-3 7-6 17-6 28h103" id="ac"/><path d="M114-163C36-179 61-72 57 0H25l-1-190h30c1 12-1 29 2 39 6-27 23-49 58-41v29" id="ad"/><path d="M141-36C126-15 110 5 73 4 37 3 15-17 15-53c-1-64 63-63 125-63 3-35-9-54-41-54-24 1-41 7-42 31l-33-3c5-37 33-52 76-52 45 0 72 20 72 64v82c-1 20 7 32 28 27v20c-31 9-61-2-59-35zM48-53c0 20 12 33 32 33 41-3 63-29 60-74-43 2-92-5-92 41" id="ae"/><path d="M24 0v-261h32V0H24" id="af"/><g id="j"><use transform="matrix(0.06790123456790124,0,0,0.06790123456790124,0,0)" xlink:href="#Z"/><use transform="matrix(0.06790123456790124,0,0,0.06790123456790124,13.580246913580249,0)" xlink:href="#aa"/><use transform="matrix(0.06790123456790124,0,0,0.06790123456790124,18.944444444444446,0)" xlink:href="#ab"/><use transform="matrix(0.06790123456790124,0,0,0.06790123456790124,25.734567901234573,0)" xlink:href="#ac"/><use transform="matrix(0.06790123456790124,0,0,0.06790123456790124,39.31481481481481,0)" xlink:href="#ad"/><use transform="matrix(0.06790123456790124,0,0,0.06790123456790124,47.39506172839506,0)" xlink:href="#ae"/><use transform="matrix(0.06790123456790124,0,0,0.06790123456790124,60.97530864197531,0)" xlink:href="#af"/></g><g id="k"><use transform="matrix(0.06790123456790124,0,0,0.06790123456790124,0,0)" xlink:href="#A"/><use transform="matrix(0.06790123456790124,0,0,0.06790123456790124,13.580246913580249,0)" xlink:href="#X"/></g><path fill="#008a0e" d="M266 0h-40l-56-210L115 0H75L2-248h35L96-30l15-64 43-154h32l59 218 59-218h35" id="ag"/><path fill="#008a0e" d="M194 0L95-120 63-95V0H30v-248h33v124l119-124h40L117-140 236 0h-42" id="ah"/><path fill="#008a0e" d="M127-220V0H93v-220H8v-28h204v28h-85" id="ai"/><g id="l"><use transform="matrix(0.06790123456790124,0,0,0.06790123456790124,0,0)" xlink:href="#ag"/><use transform="matrix(0.06790123456790124,0,0,0.06790123456790124,23.018518518518523,0)" xlink:href="#ah"/><use transform="matrix(0.06790123456790124,0,0,0.06790123456790124,39.314814814814824,0)" xlink:href="#ai"/></g><path fill="#e81313" d="M106-169C34-169 62-67 57 0H25v-261h32l-1 103c12-21 28-36 61-36 89 0 53 116 60 194h-32v-121c2-32-8-49-39-48" id="aj"/><path fill="#e81313" d="M141-36C126-15 110 5 73 4 37 3 15-17 15-53c-1-64 63-63 125-63 3-35-9-54-41-54-24 1-41 7-42 31l-33-3c5-37 33-52 76-52 45 0 72 20 72 64v82c-1 20 7 32 28 27v20c-31 9-61-2-59-35zM48-53c0 20 12 33 32 33 41-3 63-29 60-74-43 2-92-5-92 41" id="ak"/><path fill="#e81313" d="M135-143c-3-34-86-38-87 0 15 53 115 12 119 90S17 21 10-45l28-5c4 36 97 45 98 0-10-56-113-15-118-90-4-57 82-63 122-42 12 7 21 19 24 35" id="al"/><g id="m"><use transform="matrix(0.06790123456790124,0,0,0.06790123456790124,0,0)" xlink:href="#aj"/><use transform="matrix(0.06790123456790124,0,0,0.06790123456790124,13.580246913580249,0)" xlink:href="#ak"/><use transform="matrix(0.06790123456790124,0,0,0.06790123456790124,27.160493827160497,0)" xlink:href="#al"/></g><path fill="#e81313" d="M115-194c55 1 70 41 70 98S169 2 115 4C84 4 66-9 55-30l1 105H24l-1-265h31l2 30c10-21 28-34 59-34zm-8 174c40 0 45-34 45-75s-6-73-45-74c-42 0-51 32-51 76 0 43 10 73 51 73" id="am"/><path fill="#e81313" d="M114-163C36-179 61-72 57 0H25l-1-190h30c1 12-1 29 2 39 6-27 23-49 58-41v29" id="an"/><path fill="#e81313" d="M59-47c-2 24 18 29 38 22v24C64 9 27 4 27-40v-127H5v-23h24l9-43h21v43h35v23H59v120" id="ao"/><g id="n"><use transform="matrix(0.06790123456790124,0,0,0.06790123456790124,0,0)" xlink:href="#am"/><use transform="matrix(0.06790123456790124,0,0,0.06790123456790124,13.580246913580249,0)" xlink:href="#ak"/><use transform="matrix(0.06790123456790124,0,0,0.06790123456790124,27.160493827160497,0)" xlink:href="#an"/><use transform="matrix(0.06790123456790124,0,0,0.06790123456790124,35.24074074074075,0)" xlink:href="#ao"/></g><path fill="#008a0e" d="M212-179c-10-28-35-45-73-45-59 0-87 40-87 99 0 60 29 101 89 101 43 0 62-24 78-52l27 14C228-24 195 4 139 4 59 4 22-46 18-125c-6-104 99-153 187-111 19 9 31 26 39 46" id="ap"/><path fill="#008a0e" d="M24 0v-261h32V0H24" id="aq"/><g id="o"><use transform="matrix(0.06790123456790124,0,0,0.06790123456790124,0,0)" xlink:href="#ap"/><use transform="matrix(0.06790123456790124,0,0,0.06790123456790124,17.58641975308642,0)" xlink:href="#aq"/><use transform="matrix(0.06790123456790124,0,0,0.06790123456790124,22.95061728395062,0)" xlink:href="#A"/><use transform="matrix(0.06790123456790124,0,0,0.06790123456790124,36.53086419753087,0)" xlink:href="#X"/><use transform="matrix(0.06790123456790124,0,0,0.06790123456790124,48.75308641975309,0)" xlink:href="#X"/></g><path fill="#008a0e" d="M24-231v-30h32v30H24zM24 0v-190h32V0H24" id="ar"/><path fill="#008a0e" d="M117-194c89-4 53 116 60 194h-32v-121c0-31-8-49-39-48C34-167 62-67 57 0H25l-1-190h30c1 10-1 24 2 32 11-22 29-35 61-36" id="as"/><g id="p"><use transform="matrix(0.06790123456790124,0,0,0.06790123456790124,0,0)" xlink:href="#D"/><use transform="matrix(0.06790123456790124,0,0,0.06790123456790124,8.080246913580249,0)" xlink:href="#z"/><use transform="matrix(0.06790123456790124,0,0,0.06790123456790124,21.660493827160497,0)" xlink:href="#aq"/><use transform="matrix(0.06790123456790124,0,0,0.06790123456790124,27.024691358024697,0)" xlink:href="#A"/><use transform="matrix(0.06790123456790124,0,0,0.06790123456790124,40.604938271604944,0)" xlink:href="#B"/><use transform="matrix(0.06790123456790124,0,0,0.06790123456790124,47.39506172839507,0)" xlink:href="#ar"/><use transform="matrix(0.06790123456790124,0,0,0.06790123456790124,52.75925925925927,0)" xlink:href="#T"/><use transform="matrix(0.06790123456790124,0,0,0.06790123456790124,66.33950617283952,0)" xlink:href="#as"/></g><path fill="#1071e5" d="M24 0v-261h32V0H24" id="at"/><g id="q"><use transform="matrix(0.06790123456790124,0,0,0.06790123456790124,0,0)" xlink:href="#E"/><use transform="matrix(0.06790123456790124,0,0,0.06790123456790124,17.58641975308642,0)" xlink:href="#at"/><use transform="matrix(0.06790123456790124,0,0,0.06790123456790124,22.95061728395062,0)" xlink:href="#M"/><use transform="matrix(0.06790123456790124,0,0,0.06790123456790124,36.53086419753087,0)" xlink:href="#P"/><use transform="matrix(0.06790123456790124,0,0,0.06790123456790124,48.75308641975309,0)" xlink:href="#P"/></g><path fill="#1071e5" d="M59-47c-2 24 18 29 38 22v24C64 9 27 4 27-40v-127H5v-23h24l9-43h21v43h35v23H59v120" id="au"/><g id="r"><use transform="matrix(0.06790123456790124,0,0,0.06790123456790124,0,0)" xlink:href="#R"/><use transform="matrix(0.06790123456790124,0,0,0.06790123456790124,8.080246913580249,0)" xlink:href="#N"/><use transform="matrix(0.06790123456790124,0,0,0.06790123456790124,21.660493827160497,0)" xlink:href="#at"/><use transform="matrix(0.06790123456790124,0,0,0.06790123456790124,27.024691358024697,0)" xlink:href="#M"/><use transform="matrix(0.06790123456790124,0,0,0.06790123456790124,40.604938271604944,0)" xlink:href="#au"/><use transform="matrix(0.06790123456790124,0,0,0.06790123456790124,47.39506172839507,0)" xlink:href="#O"/><use transform="matrix(0.06790123456790124,0,0,0.06790123456790124,52.75925925925927,0)" xlink:href="#F"/><use transform="matrix(0.06790123456790124,0,0,0.06790123456790124,66.33950617283952,0)" xlink:href="#J"/></g><path fill="#e81313" d="M100-194c63 0 86 42 84 106H49c0 40 14 67 53 68 26 1 43-12 49-29l28 8c-11 28-37 45-77 45C44 4 14-33 15-96c1-61 26-98 85-98zm52 81c6-60-76-77-97-28-3 7-6 17-6 28h103" id="av"/><path fill="#e81313" d="M24 0v-261h32V0H24" id="aw"/><path fill="#e81313" d="M24-231v-30h32v30H24zM24 0v-190h32V0H24" id="ax"/><path fill="#e81313" d="M100-194c62-1 85 37 85 99 1 63-27 99-86 99S16-35 15-95c0-66 28-99 85-99zM99-20c44 1 53-31 53-75 0-43-8-75-51-75s-53 32-53 75 10 74 51 75" id="ay"/><path fill="#e81313" d="M117-194c89-4 53 116 60 194h-32v-121c0-31-8-49-39-48C34-167 62-67 57 0H25l-1-190h30c1 10-1 24 2 32 11-22 29-35 61-36" id="az"/><g id="s"><use transform="matrix(0.06790123456790124,0,0,0.06790123456790124,0,0)" xlink:href="#an"/><use transform="matrix(0.06790123456790124,0,0,0.06790123456790124,8.080246913580249,0)" xlink:href="#av"/><use transform="matrix(0.06790123456790124,0,0,0.06790123456790124,21.660493827160497,0)" xlink:href="#aw"/><use transform="matrix(0.06790123456790124,0,0,0.06790123456790124,27.024691358024697,0)" xlink:href="#ak"/><use transform="matrix(0.06790123456790124,0,0,0.06790123456790124,40.604938271604944,0)" xlink:href="#ao"/><use transform="matrix(0.06790123456790124,0,0,0.06790123456790124,47.39506172839507,0)" xlink:href="#ax"/><use transform="matrix(0.06790123456790124,0,0,0.06790123456790124,52.75925925925927,0)" xlink:href="#ay"/><use transform="matrix(0.06790123456790124,0,0,0.06790123456790124,66.33950617283952,0)" xlink:href="#az"/></g><path d="M143 4C61 4 22-44 18-125c-5-107 100-154 193-111 17 8 29 25 37 43l-32 9c-13-25-37-40-76-40-61 0-88 39-88 99 0 61 29 100 91 101 35 0 62-11 79-27v-45h-74v-28h105v86C228-13 192 4 143 4" id="aA"/><path d="M100-194c62-1 85 37 85 99 1 63-27 99-86 99S16-35 15-95c0-66 28-99 85-99zM99-20c44 1 53-31 53-75 0-43-8-75-51-75s-53 32-53 75 10 74 51 75" id="aB"/><path d="M185-189c-5-48-123-54-124 2 14 75 158 14 163 119 3 78-121 87-175 55-17-10-28-26-33-46l33-7c5 56 141 63 141-1 0-78-155-14-162-118-5-82 145-84 179-34 5 7 8 16 11 25" id="aC"/><path d="M30-248c87 1 191-15 191 75 0 78-77 80-158 76V0H30v-248zm33 125c57 0 124 11 124-50 0-59-68-47-124-48v98" id="aD"/><path d="M205 0l-28-72H64L36 0H1l101-248h38L239 0h-34zm-38-99l-47-123c-12 45-31 82-46 123h93" id="aE"/><path d="M233-177c-1 41-23 64-60 70L243 0h-38l-65-103H63V0H30v-248c88 3 205-21 203 71zM63-129c60-2 137 13 137-47 0-61-80-42-137-45v92" id="aF"/><path d="M140-251c81 0 123 46 123 126C263-53 228-8 163 1c7 30 30 48 69 40v23c-55 16-95-15-103-61C56-3 17-48 17-125c0-80 42-126 123-126zm0 227c63 0 89-41 89-101s-29-99-89-99c-61 0-89 39-89 99S79-25 140-24" id="aG"/><g id="t"><use transform="matrix(0.05,0,0,0.05,0,0)" xlink:href="#aA"/><use transform="matrix(0.05,0,0,0.05,14,0)" xlink:href="#ac"/><use transform="matrix(0.05,0,0,0.05,24,0)" xlink:href="#aB"/><use transform="matrix(0.05,0,0,0.05,34,0)" xlink:href="#aC"/><use transform="matrix(0.05,0,0,0.05,46,0)" xlink:href="#aD"/><use transform="matrix(0.05,0,0,0.05,56.650000000000006,0)" xlink:href="#aE"/><use transform="matrix(0.05,0,0,0.05,68.65,0)" xlink:href="#aF"/><use transform="matrix(0.05,0,0,0.05,81.60000000000001,0)" xlink:href="#aG"/><use transform="matrix(0.05,0,0,0.05,95.60000000000001,0)" xlink:href="#Z"/></g><path d="M210-169c-67 3-38 105-44 169h-31v-121c0-29-5-50-35-48C34-165 62-65 56 0H25l-1-190h30c1 10-1 24 2 32 10-44 99-50 107 0 11-21 27-35 58-36 85-2 47 119 55 194h-31v-121c0-29-5-49-35-48" id="aH"/><path d="M117-194c89-4 53 116 60 194h-32v-121c0-31-8-49-39-48C34-167 62-67 57 0H25l-1-190h30c1 10-1 24 2 32 11-22 29-35 61-36" id="aI"/><path d="M135-143c-3-34-86-38-87 0 15 53 115 12 119 90S17 21 10-45l28-5c4 36 97 45 98 0-10-56-113-15-118-90-4-57 82-63 122-42 12 7 21 19 24 35" id="aJ"/><g id="u"><use transform="matrix(0.05,0,0,0.05,0,0)" xlink:href="#ac"/><use transform="matrix(0.05,0,0,0.05,10,0)" xlink:href="#af"/><use transform="matrix(0.05,0,0,0.05,13.949999999999998,0)" xlink:href="#ac"/><use transform="matrix(0.05,0,0,0.05,23.95,0)" xlink:href="#aH"/><use transform="matrix(0.05,0,0,0.05,38.9,0)" xlink:href="#ac"/><use transform="matrix(0.05,0,0,0.05,48.9,0)" xlink:href="#aI"/><use transform="matrix(0.05,0,0,0.05,58.900000000000006,0)" xlink:href="#ab"/><use transform="matrix(0.05,0,0,0.05,63.900000000000006,0)" xlink:href="#aJ"/></g><path d="M212-179c-10-28-35-45-73-45-59 0-87 40-87 99 0 60 29 101 89 101 43 0 62-24 78-52l27 14C228-24 195 4 139 4 59 4 22-46 18-125c-6-104 99-153 187-111 19 9 31 26 39 46" id="aK"/><path d="M115-194c55 1 70 41 70 98S169 2 115 4C84 4 66-9 55-30l1 105H24l-1-265h31l2 30c10-21 28-34 59-34zm-8 174c40 0 45-34 45-75s-6-73-45-74c-42 0-51 32-51 76 0 43 10 73 51 73" id="aL"/><path d="M84 4C-5 8 30-112 23-190h32v120c0 31 7 50 39 49 72-2 45-101 50-169h31l1 190h-30c-1-10 1-25-2-33-11 22-28 36-60 37" id="aM"/><path d="M85-194c31 0 48 13 60 33l-1-100h32l1 261h-30c-2-10 0-23-3-31C134-8 116 4 85 4 32 4 16-35 15-94c0-66 23-100 70-100zm9 24c-40 0-46 34-46 75 0 40 6 74 45 74 42 0 51-32 51-76 0-42-9-74-50-73" id="aN"/><g id="v"><use transform="matrix(0.05,0,0,0.05,0,0)" xlink:href="#aK"/><use transform="matrix(0.05,0,0,0.05,12.950000000000001,0)" xlink:href="#aB"/><use transform="matrix(0.05,0,0,0.05,22.950000000000003,0)" xlink:href="#aH"/><use transform="matrix(0.05,0,0,0.05,37.900000000000006,0)" xlink:href="#aL"/><use transform="matrix(0.05,0,0,0.05,47.900000000000006,0)" xlink:href="#aB"/><use transform="matrix(0.05,0,0,0.05,57.900000000000006,0)" xlink:href="#aM"/><use transform="matrix(0.05,0,0,0.05,67.9,0)" xlink:href="#aI"/><use transform="matrix(0.05,0,0,0.05,77.9,0)" xlink:href="#aN"/></g><path d="M190 0L58-211 59 0H30v-248h39L202-35l-2-213h31V0h-41" id="aO"/><g id="w"><use transform="matrix(0.05,0,0,0.05,0,0)" xlink:href="#aO"/><use transform="matrix(0.05,0,0,0.05,12.950000000000001,0)" xlink:href="#ae"/><use transform="matrix(0.05,0,0,0.05,22.950000000000003,0)" xlink:href="#aH"/><use transform="matrix(0.05,0,0,0.05,37.900000000000006,0)" xlink:href="#ac"/></g><path d="M96-169c-40 0-48 33-48 73s9 75 48 75c24 0 41-14 43-38l32 2c-6 37-31 61-74 61-59 0-76-41-82-99-10-93 101-131 147-64 4 7 5 14 7 22l-32 3c-4-21-16-35-41-35" id="aP"/><path d="M106-169C34-169 62-67 57 0H25v-261h32l-1 103c12-21 28-36 61-36 89 0 53 116 60 194h-32v-121c2-32-8-49-39-48" id="aQ"/><path d="M33 0v-38h34V0H33" id="aR"/><path d="M177-190C167-65 218 103 67 71c-23-6-38-20-44-43l32-5c15 47 100 32 89-28v-30C133-14 115 1 83 1 29 1 15-40 15-95c0-56 16-97 71-98 29-1 48 16 59 35 1-10 0-23 2-32h30zM94-22c36 0 50-32 50-73 0-42-14-75-50-75-39 0-46 34-46 75s6 73 46 73" id="aS"/><g id="x"><use transform="matrix(0.05,0,0,0.05,0,0)" xlink:href="#aJ"/><use transform="matrix(0.05,0,0,0.05,9,0)" xlink:href="#aP"/><use transform="matrix(0.05,0,0,0.05,18,0)" xlink:href="#aQ"/><use transform="matrix(0.05,0,0,0.05,28,0)" xlink:href="#ac"/><use transform="matrix(0.05,0,0,0.05,38,0)" xlink:href="#aH"/><use transform="matrix(0.05,0,0,0.05,52.95,0)" xlink:href="#ae"/><use transform="matrix(0.05,0,0,0.05,62.95,0)" xlink:href="#aR"/><use transform="matrix(0.05,0,0,0.05,67.95,0)" xlink:href="#aB"/><use transform="matrix(0.05,0,0,0.05,77.95,0)" xlink:href="#ad"/><use transform="matrix(0.05,0,0,0.05,83.9,0)" xlink:href="#aS"/></g></defs></g></svg>